<?xml version="1.0" encoding="utf-8"?>
<!-- Generator: Adobe Illustrator 26.5.3, SVG Export Plug-In . SVG Version: 6.00 Build 0)  -->
<svg version="1.1" id="Livello_1" xmlns="http://www.w3.org/2000/svg" xmlns:xlink="http://www.w3.org/1999/xlink" x="0px" y="0px"
	 viewBox="0 0 1200 1200" style="enable-background:new 0 0 1200 1200;" xml:space="preserve">
<style type="text/css">
	.st0{fill:#FFFFFF;}
</style>
<path class="st0" d="M600,193c-150.77,0-273,122.23-273,273c0,1.74,0.03,3.5,0.07,5.27c0.35,18.67,2.58,36.88,6.5,54.45
	C375.14,733.7,600,1007,600,1007s224.86-273.3,266.43-481.28c3.92-17.57,6.15-35.78,6.5-54.45c0.04-1.77,0.07-3.53,0.07-5.27
	C873,315.23,750.77,193,600,193z M600,633.5c-94.99,0-172-77.01-172-172s77.01-172,172-172s172,77.01,172,172
	S694.99,633.5,600,633.5z"/>
</svg>
